<svg xmlns="http://www.w3.org/2000/svg" version="1.1" xmlns:xlink="http://www.w3.org/1999/xlink" width="512" height="512" x="0" y="0" viewBox="0 0 512 512" style="enable-background:new 0 0 512 512" xml:space="preserve" class=""><g><clipPath id="a"><path d="M530.913 479.149a178.1 177.977 0 1 1-356.2 0 178.1 177.977 0 1 1 356.2 0z" fill="#000000" opacity="1" data-original="#000000"></path></clipPath><g fill="#57bb63" clip-path="url(#a)" transform="translate(-219.663 -390.055) scale(1.348)"><path fill="#2ecc71" d="M118.942 663.553h556.402V292.6H118.942z" opacity="1" data-original="#2ecc71" class=""></path></g><path fill="#f1c40f" d="M56.14 255.887 256.1 383.584l199.935-127.697L256.1 128.215z" opacity="1" data-original="#f1c40f" class=""></path><path fill="#2980b9" d="M256.1 170.247c47.258 0 85.59 38.357 85.59 85.64 0 47.308-38.332 85.64-85.59 85.64-47.333 0-85.665-38.332-85.665-85.64 0-47.283 38.332-85.64 85.665-85.64" opacity="1" data-original="#2980b9"></path><path fill="#ffffff" d="M341.29 264.514c-37.457-29.88-85.315-47.108-136.974-45.258-9.126.3-18.103 1.276-26.905 2.75a84.575 84.575 0 0 0-4.45 13.203c10.301-2.05 20.903-3.35 31.805-3.751 50.959-1.8 98.067 16.078 133.998 46.758a85.46 85.46 0 0 0 2.526-13.702" opacity="1" data-original="#ffffff"></path><path fill="#2ecc71" d="m181.587 227.382.95 2.026 1.75.5 1.55-.95.327-2.25-.924-2.051-1.777-.426-1.55.924-.326 2.225zm-1.7.3.08-2.175.574-1.25.976-.874 1.75-.6 3.076.724 1.576 3-.65 3.3-2.75 1.551-3.1-.7-1.525-2.976M192.94 225.332l1.225-.12 1.525-.226.426-.4.12-.65-.276-.676-.674-.25-1.25.1-1.3.1.2 2.125zm-1.275 4.95-.724-8.326 3.525-.326 2 .04 1.027.7.474 1.3-.4 1.577-1.6.924.976.624 1.05 1.276 1.176 1.55-2 .18-1.4-1.724-.975-1.124-.526-.326h-.876l-.35.02.326 3.476-1.7.16M203.541 222.431l.14 5.551 1.276-.06 1.024-.1.65-.374.427-.824.12-1.526-.2-1.476-.527-.8-.774-.375-1.4-.02h-.75zm-1.726-1.35 3.1-.08 1.576.1 1.277.724.85 1.325.326 2-.226 1.776-.824 1.5-1.176.7-1.525.225-3.175.1-.2-8.377M212.342 229.208l.08-8.377 6.227.08-.02 1.424-4.501-.08-.02 1.875 4.2.08-.02 1.4-4.2-.08-.06 2.3 4.676.06s.32 1.094-.02 1.425c-1.514 1.468-6.326-.1-6.326-.1M222.044 229.408l.6-8.327 2.5.14 1.125 5.826 1.874-5.6 2.55.18-.6 8.35-1.55-.1.474-6.575-2.125 6.45-1.624-.1-1.2-6.7-.45 6.55-1.577-.1M238.772 230.983l1.25-8.277 6.151.925-.226 1.426-4.45-.7-.3 1.826 4.175.624-.226 1.424-4.15-.65-.35 2.276 4.65.7-.226 1.4-6.3-.976M256.525 227.132l-.526 2.326.9.2 1.324.18.625-.3.326-.576-.1-.8-.6-.527-1.15-.326-.8-.18zm-3.225 6.376 1.9-8.151 2.65.624 1.925.55 1 1.074.1 1.7-.574 1.2-.876.651-.95.2-1.727-.3-1.076-.226-.7 3.075-1.676-.4M265.777 231.633l1.2.35 1.5.3.55-.2.35-.574-.04-.7-.526-.476-1.2-.4-1.2-.35-.624 2.05zm-2.95 4.176 2.3-8.052 3.425.975 1.8.75.725 1.05v1.376l-.976 1.35-1.8.25.673.95.55 1.575.55 1.85-1.95-.55-.674-2.1-.526-1.425-.374-.476-.826-.326-.3-.1-.974 3.376-1.627-.474M275.378 235.209l-.1 2.25 1.35 1.274 1.777-.18 1.35-1.824.12-2.25-1.374-1.225-1.8.12-1.325 1.825zm-1.65-.5 1.05-1.925 1.1-.824 1.25-.35 1.851.274 2.4 2.05s.367 2.312 0 3.376c-.365 1.06-2.075 2.65-2.075 2.65l-3.15.1-2.426-2.025v-3.325M287.83 241.06l.55-1.3 3.351 1.374-1.224 3.075-1.8.274-2.026-.4-1.924-1.4-.724-2 .376-2.276 1.4-1.926 2.076-.824 2 .374 2 1.526.35 2.1-1.676-.35-.226-1.15-.974-.8-1.924-.02-1.4 1.676-.227 2.326 1.324 1.35 1.077.2 1.024-.1.4-.976-1.8-.75M296.832 243.085l1.15.55 1.4.55.577-.1.426-.5.1-.7-.45-.576-1.076-.55-1.2-.574-.925 1.9zm-3.575 3.65 3.575-7.55 3.2 1.526 1.677 1.05.55 1.126-.276 1.35-1.124 1.174-1.85-.02.526 1.025.3 1.65.2 1.9-1.827-.876-.326-2.15-.25-1.5-.326-.55-.724-.425-.3-.16-1.526 3.15-1.5-.723M302.483 251.236l4-7.35 5.452 2.95-.65 1.224-4.026-2.15-.874 1.676 3.725 1.974-.7 1.25-3.675-2-1.075 2 4.101 2.226-.65 1.25-5.626-3.05M312.01 253.387l1.476.7-.1 1.376.826.95 1.25.35.774-.474.12-.55-.35-.6-.974-1.024-1.2-1.676.224-1.85.926-.85 1.325-.18 1.55.6 1.676 1.824-.224 2.025-1.5-.824.1-1.024-.774-.825-1.15-.326-.477.326-.04.55 1.05 1.277 1.2 1.476.35 1.2-.4 1.3-1.023.975-1.45.2-1.727-.7-1.7-1.875.25-2.35M320.386 258.563l1.45.776-.18 1.324.8 1.024 1.227.4.776-.45.14-.5-.3-.624-.926-1.074-1.124-1.75.326-1.827.974-.8 1.326-.12 1.524.7 1.577 1.9-.327 2-1.45-.875.12-1.05-.7-.825-1.124-.374-.55.25-.08.576 1 1.325 1.15 1.526.3 1.224-.45 1.3-1.1.877-1.45.14-1.677-.775-1.626-1.974.35-2.325M330.838 264.039l-.75 2.125.874 1.576 1.75.426 1.85-1.35.775-2.1-.924-1.55-1.75-.45-1.827 1.326zm-1.424-1.027 1.626-1.474 1.274-.426 1.327.02 1.676.85 1.65 2.676-1.05 3.225-2.776 1.875-3.05-.85-1.676-2.726 1-3.176" opacity="1" data-original="#2ecc71" class=""></path><g fill="#fff"><path d="m283.255 223.382.824 2.425h2.525l-2.05 1.5.774 2.4-2.075-1.476-2.05 1.477.824-2.4-2.05-1.501h2.525l.75-2.425M256.425 292.569l.774 2.425h2.55l-2.05 1.476.776 2.426-2.05-1.5-2.05 1.5.774-2.426-2.05-1.476h2.55l.774-2.425M317.21 284.042l.8 2.5h2.601l-2.1 1.5.8 2.451-2.1-1.5-2.076 1.5.774-2.45-2.075-1.5h2.576l.8-2.5M329.188 286.117l.526 1.55h1.65l-1.324.975.5 1.576-1.35-.95-1.3.95.476-1.576-1.327-.974h1.677l.476-1.55M320.686 292.219l.7 2.15h2.25l-1.85 1.3.725 2.15-1.827-1.324-1.826 1.325.724-2.15-1.85-1.301h2.25l.7-2.15M315.335 299.295l.674 2.1h2.2l-1.75 1.3.675 2.1-1.8-1.3-1.777 1.3.7-2.1-1.826-1.3h2.225l.674-2.1M308.46 304.42l.55 1.6h1.676l-1.375 1.025.55 1.6-1.4-1-1.35 1 .5-1.6-1.374-1.024h1.726l.5-1.6M299.458 302.695l.526 1.6h1.676l-1.35.977.524 1.6-1.374-.974-1.35.974.525-1.6-1.35-.976h1.675l.5-1.6M289.756 305.62l.576 1.751h1.8l-1.474 1.05.576 1.725-1.476-1.077-1.45 1.077.55-1.725-1.475-1.05h1.827l.55-1.75M299.633 319.773l.5 1.625h1.726l-1.376 1 .526 1.626-1.376-1-1.4 1 .55-1.626-1.377-1h1.677zM282.155 312.322l.7 2.2h2.325l-1.9 1.377.75 2.175-1.874-1.35-1.9 1.35.75-2.175-1.9-1.377h2.324zM275.428 303.395l.55 1.677h1.8l-1.45 1.024.577 1.7-1.477-1.05-1.426 1.05.55-1.7-1.426-1.024h1.75l.55-1.677M299.883 310.397l.724 2.125h2.25l-1.85 1.326.7 2.126-1.826-1.3-1.8 1.3.7-2.126-1.827-1.326h2.25l.675-2.125M256.325 324.15l.25.773h.8l-.65.476.25.774-.65-.474-.65.474.25-.774-.65-.476h.824zM279.054 249.436l.574 1.75h1.826l-1.474 1.077.576 1.776-1.5-1.076-1.476 1.076.55-1.776-1.474-1.077h1.826l.576-1.75M256.375 268.314l.624 1.85h1.95l-1.6 1.15.624 1.851-1.6-1.15-1.55 1.15.6-1.85-1.576-1.15h1.95l.576-1.85M266.452 276.116l.624 1.974h2.1l-1.676 1.224.65 1.975-1.7-1.225-1.7 1.225.674-1.975-1.727-1.224h2.1l.65-1.974M247.699 276.366l.476 1.576h1.676l-1.35.95.5 1.6-1.3-1-1.35 1 .5-1.6-1.327-.95h1.627l.55-1.576M251.85 283.417l.325 1.074h1.1l-.9.624.35 1.024-.874-.624-.9.624.35-1.024-.874-.624h1.074l.35-1.074M185.313 238.31l.8 2.425h2.525l-2.05 1.476.776 2.425-2.05-1.476-2.05 1.476.8-2.425-2.05-1.476h2.525l.776-2.426M222.794 257.763l.624 1.974h2.1l-1.7 1.224.675 2-1.7-1.224-1.727 1.224.676-2-1.7-1.224h2.1l.65-1.974M193.09 274.666l.773 2.45h2.55l-2.05 1.5.774 2.426-2.05-1.525-2.075 1.525.774-2.426-2.05-1.5h2.55l.8-2.45M201.49 271.065l.4 1.224h1.25l-1.023.75.4 1.2-1.024-.75-1.025.75.4-1.2-1.024-.75h1.25l.4-1.224M211.267 283.792l.65 2.075h2.176l-1.75 1.277.65 2.05-1.727-1.276-1.8 1.276.7-2.05-1.776-1.277h2.175l.7-2.075M221.444 299.72l.774 2.425h2.55l-2.05 1.477.776 2.4-2.05-1.476-2.05 1.476.776-2.4-2.05-1.477h2.55l.776-2.425M208.417 292.444l.7 2.05h2.15l-1.75 1.276.676 2.05-1.776-1.274-1.727 1.275.65-2.05-1.75-1.277h2.176l.65-2.05M182.337 283.467l.526 1.626h1.677l-1.35.974.526 1.6-1.377-.975-1.35.976.5-1.6-1.376-.975h1.7l.526-1.626" fill="#ffffff" opacity="1" data-original="#ffffff"></path></g></g></svg>