<?xml version="1.0" encoding="UTF-8" standalone="no" ?>
<!DOCTYPE svg PUBLIC "-//W3C//DTD SVG 1.1//EN" "http://www.w3.org/Graphics/SVG/1.1/DTD/svg11.dtd">
<svg xmlns="http://www.w3.org/2000/svg" xmlns:xlink="http://www.w3.org/1999/xlink" version="1.1" width="1080" height="1080" viewBox="0 0 1080 1080" xml:space="preserve">
<desc>Created with Fabric.js 5.2.4</desc>
<defs>
</defs>
<rect x="0" y="0" width="100%" height="100%" fill="transparent"></rect>
<g transform="matrix(1 0 0 1 540 540)" id="71054eb3-abfd-4a85-8565-23fef8301cc2"  >
<rect style="stroke: none; stroke-width: 1; stroke-dasharray: none; stroke-linecap: butt; stroke-dashoffset: 0; stroke-linejoin: miter; stroke-miterlimit: 4; fill: rgb(255,255,255); fill-rule: nonzero; opacity: 1; visibility: hidden;" vector-effect="non-scaling-stroke"  x="-540" y="-540" rx="0" ry="0" width="1080" height="1080" />
</g>
<g transform="matrix(1 0 0 1 540 540)" id="e59800d4-d1a4-4be4-a2c3-863e594dd6ff"  >
</g>
<g transform="matrix(2.1 0 0 1.93 539.6 540.81)"  >
<g style="" vector-effect="non-scaling-stroke"   >
		<g transform="matrix(20.48 0 0 20.48 0.01 -125.95)"  >
<path style="stroke: none; stroke-width: 1; stroke-dasharray: none; stroke-linecap: butt; stroke-dashoffset: 0; stroke-linejoin: miter; stroke-miterlimit: 4; fill: rgb(95,156,103); fill-rule: nonzero; opacity: 1;" vector-effect="non-scaling-stroke"  transform=" translate(-12.5, -6.35)" d="M 21.19 9.79 L 15.05 1.7199999999999989 C 14.42 0.95 13.49 0.5 12.5 0.5 C 11.51 0.5 10.58 0.95 9.92 1.77 L 3.81 9.79 C 3.310182301403132 10.449980276047798 3.4400197239522017 11.390182301403131 4.1 11.89 C 4.759980276047798 12.389817698596868 5.700182301403132 12.259980276047798 6.2 11.6 L 12.280000000000001 3.6099999999999994 C 12.410000000000002 3.4499999999999993 12.63 3.4899999999999993 12.700000000000001 3.5699999999999994 L 18.810000000000002 11.599999999999998 C 19.1 11.999999999999998 19.55 12.199999999999998 20.000000000000004 12.199999999999998 C 20.320000000000004 12.199999999999998 20.640000000000004 12.099999999999998 20.910000000000004 11.889999999999997 C 21.560000000000002 11.399999999999997 21.690000000000005 10.449999999999998 21.190000000000005 9.789999999999997 z" stroke-linecap="round" />
</g>
		<g transform="matrix(20.48 0 0 20.48 0 89.09)"  >
<path style="stroke: none; stroke-width: 1; stroke-dasharray: none; stroke-linecap: butt; stroke-dashoffset: 0; stroke-linejoin: miter; stroke-miterlimit: 4; fill: rgb(176,215,185); fill-rule: nonzero; opacity: 1;" vector-effect="non-scaling-stroke"  transform=" translate(-12.5, -16.85)" d="M 21.77 9.2 L 3.23 9.2 C 1.72 9.2 0.5 10.42 0.5 11.93 L 0.5 21.77 C 0.5 23.28 1.73 24.5 3.23 24.5 L 21.77 24.5 C 23.28 24.5 24.5 23.28 24.5 21.77 L 24.5 11.93 C 24.5 10.43 23.28 9.2 21.77 9.2 z" stroke-linecap="round" />
</g>
</g>
</g>
<g transform="matrix(8 0 0 8 540 225.11)"  >
<path style="stroke: none; stroke-width: 1; stroke-dasharray: none; stroke-linecap: butt; stroke-dashoffset: 0; stroke-linejoin: miter; stroke-miterlimit: 4; fill: rgb(239,60,60); fill-rule: nonzero; opacity: 1;" vector-effect="non-scaling-stroke"  transform=" translate(-32, -23.99)" d="M 37.438 13.294 C 41.428000000000004 15.324 43.999 19.514 43.999 23.994 C 43.999 31.914 36.099000000000004 37.784 28.509 35.474000000000004 C 24.269 34.194 20.999000000000002 30.534000000000002 20.198999999999998 26.173000000000002 C 19.378999999999998 21.734 21.177999999999997 17.113 24.788999999999998 14.403000000000002 C 28.407999999999998 11.674000000000003 33.408 11.234000000000002 37.437999999999995 13.294000000000002 z" stroke-linecap="round" />
</g>
<g transform="matrix(8 0 0 8 505.14 191.52)"  >
<path style="stroke: none; stroke-width: 1; stroke-dasharray: none; stroke-linecap: butt; stroke-dashoffset: 0; stroke-linejoin: miter; stroke-miterlimit: 4; fill: rgb(255,255,255); fill-rule: nonzero; opacity: 1;" vector-effect="non-scaling-stroke"  transform=" translate(-27.64, -19.8)" d="M 29.868 16.284 C 31.107 15.934 31.647 17.863999999999997 30.397 18.204 C 28.28838703726099 18.79578260154017 26.66597363544751 20.483643677736783 26.157999999999998 22.614000000000004 C 25.857 23.864 23.918 23.404 24.208 22.154 C 24.887999999999998 19.304 27.048 17.054000000000002 29.868 16.284 z" stroke-linecap="round" />
</g>
<g transform="matrix(0 0 0 0 0 0)"  >
<g style=""   >
</g>
</g>
<g transform="matrix(2.19 0 0 2.19 557.15 726.62)" style="" id="c9d17dda-d6b3-45bb-b111-a60bcb1ced59"  >
		<text xml:space="preserve" font-family="Arial" font-size="95" font-style="normal" font-weight="800" style="stroke: none; stroke-width: 1; stroke-dasharray: none; stroke-linecap: butt; stroke-dashoffset: 0; stroke-linejoin: miter; stroke-miterlimit: 4; fill: rgb(255,255,255); fill-rule: nonzero; opacity: 1; white-space: pre;" ><tspan x="-108.2" y="-26.34" >Hire</tspan><tspan x="-88.15" y="92.31" style="white-space: pre; "> Me</tspan></text>
</g>
</svg>