<svg xmlns="http://www.w3.org/2000/svg" version="1.1" xmlns:xlink="http://www.w3.org/1999/xlink" width="512" height="512" x="0" y="0" viewBox="0 0 512 512" style="enable-background:new 0 0 512 512" xml:space="preserve" class=""><g><clipPath id="b"><path d="M20.014 549.276h480v480h-480z" fill="#000000" opacity="1" data-original="#000000"></path></clipPath><clipPath id="a"><path d="M499.959 789.294a240.032 240.032 0 1 1-480.064 0 240.032 240.032 0 1 1 480.064 0z" fill="#000000" opacity="1" data-original="#000000"></path></clipPath><g clip-path="url(#a)" transform="translate(-4.014 -533.276)"><g clip-path="url(#b)"><path fill="#2b4896" d="M20.014 549.276h480v480h-480z" opacity="1" data-original="#2b4896" class=""></path><path fill="#ffffff" d="M232.196 761.963-24.46 1046.651h50.25v15.906L266.82 792.119z" opacity="1" data-original="#ffffff"></path><path fill="#e32d3c" d="m-8.753 1084.136 248.174-276.388-18.924 1.856v-.875l-240.812 264.907z" opacity="1" data-original="#e32d3c" class=""></path><path fill="#ffffff" d="M498.795 514.953 242.14 799.64h50.25v15.906L534.42 547.11z" opacity="1" data-original="#ffffff"></path><path fill="#e32d3c" d="m509.264 518.745-249.5 274.531h20.25v.875l240.813-264.906z" opacity="1" data-original="#e32d3c" class=""></path><path fill="#ffffff" d="m220.236 823.606-245.867-293.9 50.2 1.86.589-15.89L257.015 792.8z" opacity="1" data-original="#ffffff"></path><path fill="#e32d3c" d="M230.835 820.205-8.258 536.716l20.23.75.032-.875 230.77 273.552z" opacity="1" data-original="#e32d3c" class=""></path><path fill="#ffffff" d="M220.014 549.276h80v480h-80z" opacity="1" data-original="#ffffff"></path><path fill="#ffffff" d="m298.515 771.362 256.656 284.687h-50.25v15.906L262.89 803.518z" opacity="1" data-original="#ffffff"></path><path fill="#e32d3c" d="m288.046 775.154 249.5 274.531h-20.25v.875L276.483 785.654z" opacity="1" data-original="#e32d3c" class=""></path><path fill="#ffffff" d="M500.014 749.276v80h-480v-80z" opacity="1" data-original="#ffffff"></path><g fill="#e32d3c"><path d="M236.014 549.276h48v480h-48z" fill="#e32d3c" opacity="1" data-original="#e32d3c" class=""></path><path d="M500.014 765.276v48h-480v-48z" fill="#e32d3c" opacity="1" data-original="#e32d3c" class=""></path></g></g></g></g></svg>